<?xml version="1.0" encoding="utf-8"?>
<!-- Generator: Adobe Illustrator 21.0.2, SVG Export Plug-In . SVG Version: 6.00 Build 0)  -->
<svg version="1.1" id="Isolation_Mode" xmlns="http://www.w3.org/2000/svg" xmlns:xlink="http://www.w3.org/1999/xlink" x="0px"
	 y="0px" viewBox="0 0 680 500" style="enable-background:new 0 0 680 500;" xml:space="preserve">
<style type="text/css">
	.st0{fill:#EDF1FF;}
	.st1{fill:#0C7CE6;}
	.st2{fill:#FFFFFF;}
	.st3{fill:#E8E8E8;}
	.st4{opacity:0.2;}
	.st5{fill:#8ACAFF;}
	.st6{fill:#594D41;}
	.st7{fill:#FF992B;}
	.st8{fill:#FF5353;}
	.st9{fill:#9D6251;}
	.st10{fill:#FAA284;}
	.st11{fill:#F0F2F1;}
	.st12{fill:#1B2320;}
	.st13{fill:#3F332B;}
	.st14{fill:#261E18;}
	.st15{fill:#5E4F45;}
	.st16{fill:#352B25;}
	.st17{fill:#25302C;}
	.st18{fill:#131917;}
	.st19{fill:#D4D6D5;}
	.st20{fill:#C94949;}
	.st21{fill:#EF8D72;}
	.st22{fill:#3B221D;}
	.st23{fill:#502F26;}
	.st24{fill:#DB7C65;}
	.st25{fill:#674434;}
	.st26{fill:#823321;}
	.st27{fill:#EAD9CE;}
	.st28{fill:#D4B8A2;}
	.st29{fill:#313A37;}
	.st30{fill:#545454;}
	.st31{fill:#FFB12B;}
	.st32{fill:url(#SVGID_1_);}
	.st33{fill:#674535;}
	.st34{fill:#141A18;}
	.st35{opacity:0.2;fill:#010101;}
	.st36{fill:#F8A285;}
	.st37{fill:#26312D;}
	.st38{fill:#EF8D73;}
	.st39{fill:#D5D6D5;}
	.st40{fill:#F1F3F2;}
	.st41{fill:#1C2421;}
	.st42{opacity:0.9;}
	.st43{opacity:0;fill:#EA7460;}
	.st44{opacity:9.090909e-02;fill:#EA7460;}
	.st45{opacity:0.1818;fill:#EA7460;}
	.st46{opacity:0.2727;fill:#EA7460;}
	.st47{opacity:0.3636;fill:#EA7460;}
	.st48{opacity:0.4545;fill:#EA7460;}
	.st49{opacity:0.5455;fill:#EA7460;}
	.st50{opacity:0.6364;fill:#EA7460;}
	.st51{opacity:0.7273;fill:#EA7460;}
	.st52{opacity:0.8182;fill:#EA7460;}
	.st53{opacity:0.9091;fill:#EA7460;}
	.st54{fill:#EA7460;}
	.st55{fill:#56372F;}
	.st56{fill:#503027;}
	.st57{fill:#D37660;}
	.st58{fill:#A7BBD1;}
	.st59{fill:#CCDAED;}
	.st60{fill:#EAF2FB;}
</style>
<g id="XMLID_32_">
	<g id="XMLID_33_">
		<g>
			<g id="XMLID_17_">
				<path id="XMLID_18_" class="st0" d="M631.3,75.7V189c0,9.8-8,17.7-17.7,17.7H372.1c-9.8,0-17.7-7.8-17.7-17.7V75.7
					c0-9.8,8-17.7,17.7-17.7h241.6C623.3,58,631.3,66,631.3,75.7z"/>
			</g>
		</g>
	</g>
	<g id="XMLID_34_">
		<g>
			<g id="XMLID_66_">
				<path id="XMLID_71_" class="st1" d="M631.3,75.7v9.8H354.2v-9.8c0-9.8,8-17.7,17.7-17.7h241.6C623.3,58,631.3,66,631.3,75.7z"/>
				<g id="XMLID_67_">
					<circle id="XMLID_70_" class="st1" cx="369.9" cy="73.1" r="3.7"/>
					<circle id="XMLID_69_" class="st1" cx="384.8" cy="73.1" r="3.7"/>
					<circle id="XMLID_68_" class="st1" cx="399.6" cy="73.1" r="3.7"/>
				</g>
			</g>
		</g>
	</g>
	<path id="XMLID_193_" class="st2" d="M449.5,153.5h-59.6c-0.8,0-1.2-0.6-1.2-1.2v-49c0-0.8,0.6-1.2,1.2-1.2h59.6
		c0.8,0,1.2,0.6,1.2,1.2v49C450.9,153,450.3,153.5,449.5,153.5z"/>
	<g id="XMLID_36_">
		<path id="XMLID_192_" class="st2" d="M592.9,177.6H388.7c-2.2,0-3.8-1.7-3.8-3.8l0,0c0-2.2,1.7-3.8,3.8-3.8h204.2
			c2.2,0,3.8,1.7,3.8,3.8l0,0C596.9,175.9,595.1,177.6,592.9,177.6z"/>
	</g>
	<g id="XMLID_37_">
		<path id="XMLID_190_" class="st2" d="M592.9,148.1H469c-2.2,0-3.8-1.7-3.8-3.8l0,0c0-2.2,1.7-3.8,3.8-3.8h123.9
			c2.2,0,3.8,1.7,3.8,3.8l0,0C596.9,146.4,595.1,148.1,592.9,148.1z"/>
	</g>
	<g id="XMLID_38_">
		<path id="XMLID_188_" class="st2" d="M545.7,120.4H469c-2.2,0-3.8-1.7-3.8-3.8l0,0c0-2.2,1.7-3.8,3.8-3.8h76.7
			c2.2,0,3.8,1.7,3.8,3.8l0,0C549.7,118.7,547.9,120.4,545.7,120.4z"/>
	</g>
</g>
<path id="XMLID_1_" class="st3" d="M450.8,202.7C350,149.3,302.5-14.8,147,83.3c-155.6,98.1-91.1,299.6,58,348.3
	c149.1,48.7,340.9,21.2,394.9-69.3C692,207.6,518.4,238.6,450.8,202.7z"/>
<ellipse class="st4" cx="138.6" cy="475.2" rx="75.3" ry="7.7"/>
<rect x="206.4" y="21.2" class="st5" width="266.4" height="21.3"/>
<rect x="206.4" y="36.5" class="st1" width="266.4" height="5.9"/>
<rect x="224.6" y="41.8" class="st2" width="230.3" height="227.7"/>
<rect x="247.1" y="64.1" class="st6" width="2.3" height="82.3"/>
<rect x="247.1" y="143.7" class="st6" width="100.4" height="2.7"/>
<rect x="255.2" y="132.9" class="st7" width="9" height="10.9"/>
<rect x="268.8" y="128.4" class="st7" width="7.7" height="15.4"/>
<rect x="281.4" y="114.8" class="st7" width="9" height="28.9"/>
<rect x="293.7" y="95.8" class="st7" width="9" height="47.9"/>
<rect x="306.3" y="84.9" class="st7" width="10" height="58.8"/>
<rect x="319.4" y="77.3" class="st7" width="9" height="66.5"/>
<rect x="333.5" y="69.1" class="st7" width="8.1" height="74.6"/>
<rect x="248.4" y="150.1" class="st5" width="99" height="4.1"/>
<rect x="238.9" y="64.1" class="st5" width="4.1" height="79.6"/>
<rect x="270.6" y="51" class="st1" width="42.5" height="10"/>
<rect x="381.4" y="70.5" class="st1" width="42.5" height="10"/>
<rect x="395.9" y="145.1" class="st1" width="30.8" height="8.1"/>
<rect x="248.4" y="163.6" class="st6" width="2.3" height="68.7"/>
<rect x="250.7" y="230.6" class="st6" width="98.1" height="1.8"/>
<g>
	<path class="st7" d="M251.2,230.6c-0.2,0-0.4-0.1-0.6-0.3c-0.2-0.3-0.1-0.7,0.2-0.9l12.2-8.5l7.1-17.3l13.2-4.4l13.3,6.7l11-23.7
		L321,180l19.7-11.7c0.3-0.2,0.7-0.1,0.9,0.2c0.2,0.3,0.1,0.7-0.2,0.9l-19.9,11.8l-12.9,2.2l-11.3,24.3l-14.1-7.1l-12.1,4l-7,17.1
		l-12.5,8.7C251.4,230.6,251.3,230.6,251.2,230.6z"/>
</g>
<g>
	<path class="st8" d="M251.2,212.1c-0.3,0-0.6-0.2-0.7-0.5c-0.1-0.4,0.2-0.7,0.5-0.8l23-4.5l8.8-15.4l15.8-3.3l5.4-10.9l17.1-3.4
		l19.8-3c0.4-0.1,0.7,0.2,0.8,0.6c0.1,0.4-0.2,0.7-0.6,0.8l-19.8,3l-16.4,3.2l-5.4,10.9l-15.9,3.3l-8.8,15.4l-23.6,4.6
		C251.3,212.1,251.2,212.1,251.2,212.1z"/>
</g>
<g>
	<path class="st9" d="M251.2,198.1c-0.3,0-0.6-0.3-0.7-0.6c0-0.4,0.2-0.7,0.6-0.8l21.1-2.5l12.1-17.9l15.7,1.2l7.9-9.3l31.5-4
		c0.4,0,0.7,0.2,0.8,0.6c0,0.4-0.2,0.7-0.6,0.8l-30.9,3.9l-8,9.4l-15.6-1.2l-12,17.7L251.2,198.1
		C251.2,198.1,251.2,198.1,251.2,198.1z"/>
</g>
<rect x="353.8" y="164.1" class="st1" width="20.8" height="7.7"/>
<rect x="353.8" y="176.8" class="st8" width="20.8" height="7.7"/>
<rect x="353.8" y="189.4" class="st7" width="20.8" height="7.7"/>
<rect x="250.7" y="237.4" class="st7" width="98.1" height="4.1"/>
<rect x="373.3" y="94.4" class="st5" width="58.8" height="5"/>
<rect x="361" y="106.7" class="st5" width="83.2" height="4.5"/>
<rect x="371" y="119.3" class="st5" width="63.3" height="5"/>
<rect x="389.5" y="165.9" class="st5" width="43.4" height="5"/>
<rect x="380.5" y="178.1" class="st5" width="61.5" height="4.5"/>
<rect x="387.7" y="190.8" class="st5" width="47" height="5"/>
<rect x="387.7" y="216.6" class="st5" width="47" height="5"/>
<rect x="361" y="228.3" class="st5" width="73.7" height="5"/>
<rect x="206.4" y="266.8" class="st5" width="266.4" height="21.3"/>
<rect x="206.4" y="282.1" class="st1" width="266.4" height="5.9"/>
<g>
	<path class="st10" d="M209,181.5l-3.2-5.2c0,0-3.8-5.3-2.3-13.6l4.5-2.1l4.8-19.6c0,0,5.5-3,0.9,15.8c0,0,10.5,2.8,10.8,7.6
		c0.3,4.8-3.4,6.3-3.4,6.3s-2.2,6.1-5.8,8L209,181.5z"/>
	<path class="st11" d="M216.7,187.1c1-5.3,1.3-8.1,1.3-8.1c-8.5-4.3-14-3-14-3c-0.8,2.9-1.2,4.9-2.2,8.6
		C205.7,185.1,209.1,185.7,216.7,187.1z"/>
	<path class="st12" d="M201.2,183.3c-4.5,16.9-10.2,32.9-10.2,32.9c-13.1-18.9-25.1-33.5-25.1-33.5c-7.2,4-7.4,27.1-7.4,27.1
		s19.9,32.8,38.4,35c14.3,1.7,18.9-39.5,20.7-58.4C209.9,182.5,205,182.8,201.2,183.3z"/>
	<g>
		<path class="st13" d="M118.2,471.2H92.5c0,0-1.5-7,3.9-16l17.4,0.3C113.7,455.5,118.7,462.6,118.2,471.2z"/>
		<rect x="92.4" y="471.2" class="st14" width="25.8" height="4.1"/>
		<ellipse class="st15" cx="105.4" cy="463.8" rx="9.7" ry="3.2"/>
	</g>
	<g>
		<path class="st13" d="M143.9,453.6c0,0-2,10.3-0.5,17.6H192c0,0,1.7-10.6-19.4-10.6l-13.5-9.2L143.9,453.6z"/>
		<path class="st14" d="M143.5,475.3h16.3l0.2-2.9c0,0,6.6,2.7,15.8,2.7c4.5,0,16.1,0.1,16.1,0.1v-4h-48.4V475.3z"/>
		<path class="st15" d="M173.9,460.5c0,0,0.7,7.5,17.5,7.1C191.3,467.7,189,460.9,173.9,460.5z"/>
		<path class="st16" d="M159.1,471.2c0,0-0.5-12.3-15.9-12.4c0,0-0.8,8.3,0.4,12.4H159.1z"/>
	</g>
	<path class="st17" d="M168,286.7l0.9,168.5c0,0-13.2,6.6-25.6,1.4l-4.8-140.4l-3.7-0.2l-18,140.5c0,0-9.5,4.4-23.5-0.8l14.2-169.1
		H168z"/>
	<path class="st18" d="M168.6,390.3l0.3,64.8c0,0-13.2,6.6-25.6,1.4l-2.9-86.7C147.3,397.6,162.4,393.4,168.6,390.3z"/>
	<path class="st18" d="M99.7,380.1c9.3,25.3,21.6,9.1,26.9,0l-9.8,76.5c0,0-9.5,4.3-23.5-0.9L99.7,380.1z"/>
	<path class="st18" d="M107.6,286.7h59.9V310c-5,2.2-14.7,5.7-29.1,8.2l0-2l-3.6-0.2l-0.4,2.9c-8.4,1.3-18.2,2.3-29.5,2.5
		L107.6,286.7z"/>
	<path class="st19" d="M116.8,180.1c9.1-2,20.4-3.2,32-1.3c-0.1,7.6-0.3,40.3-7.7,66.3C141,245,120.1,197.5,116.8,180.1z"/>
	<polygon class="st20" points="141.9,189.2 137.8,196.6 147.9,241.4 141,250.4 133.9,243.9 133.2,196.9 129.6,191.1 134.7,183.6 	
		"/>
	<g>
		<path class="st10" d="M141.5,173.4l0.3,11.2l-18.5,0.5l-0.4-14.6C130.7,174,138.3,173.7,141.5,173.4z"/>
		<path class="st21" d="M122.9,170.5l-0.3-11.2l18.5-0.5l0.4,14.6C138.3,173.7,130.7,174,122.9,170.5z"/>
	</g>
	<path class="st17" d="M95.2,187.3c0,0,10.6-5.8,23.4-8.6C121.9,196.2,141,245,141,245c7.5-26,5.9-59.4,6-66.9
		c5.9,0.9,13.1,1.9,18.9,4.7c0,0,7.9,35.3,4.4,115.6c0,0-26.1,9.4-68,1.4c0,0,3.9-56.3-1.5-78.3C100.8,221.5,96.9,201.1,95.2,187.3z
		"/>
	<path class="st11" d="M141.5,174.5c0,0-0.9,6.5-6.8,9.1c0,0-11-1.9-11.8-9.1l-5.6,5.4c0,0,3.4,10.3,12,13.5l5.3-8.2l7.3,6.7
		c0,0,6.7-8,6.1-13.3L141.5,174.5z"/>
	<path class="st12" d="M152.7,202.7l3.2,2.9c0,0-8.7,34-14.9,46.4c0,0-17.9-30.1-23.6-43.2l2.7-4.3l-5.9-1.8c0,0-2.4-12.4-1.7-22.4
		c1.9-0.6,4-1.1,6-1.6C121.9,196.2,141,245,141,245c7.5-26,5.9-59.4,6-66.9c1.7,0.3,3.6,0.7,5.5,1.2l4.1,19.7L152.7,202.7z"/>
	<path class="st18" d="M103.7,255.7c0,0,6.9-21.3,2.3-30.1l-3.4,9L103.7,255.7z"/>
	<g>
		<path class="st22" d="M117.9,117.2c0,0,17.9,8.5,22.2,8c4.3-0.5,18.1-7.1,18.1-7.1c1.8,8.3-2.6,15.4-2.6,15.4l-38.8,9l-6.5,1.7
			c-1.8-7-3.3-14.2-3.3-18.3C114.9,124.2,117.9,117.2,117.9,117.2z"/>
		<path class="st23" d="M111.8,112.5c3.5-14.1,27.5-15,27.5-15c12.6-7.7,7.9,2.1,7.9,2.1c21.1-7.5,11,11.4,11,11.4
			c7.8-0.3-0.1,7.1-0.1,7.1s-13.8,6.6-18.1,7.1c-4.3,0.5-22.2-8-22.2-8s-3,7-11,8.8C107,113.5,111.8,112.5,111.8,112.5z"/>
		<path class="st10" d="M111.9,139.2l2.9,2.5c0.6-1.5,1.1-3,1.5-4.5c2.4-8.9,1.6-20,1.6-20c20.4,7.9,37.8,2.2,37.8,2.2
			c-1,10.1,2.4,32.3-5.4,43.8c-2.3,3.4-5.2,6.3-10.1,7c-21.3,3.3-26.8-17.5-26.8-17.5s-6.7,1.8-8-8.1
			C104.2,136.5,111.9,139.2,111.9,139.2z"/>
		<path class="st21" d="M120.9,120.8c0,0-1.7,9.4-4.3,15.1c2-8.5,1.3-18.7,1.3-18.7c20.4,7.9,37.8,2.2,37.8,2.2
			c-0.1,1.1-0.1,2.4-0.2,3.7C147.6,124.2,133.4,125.2,120.9,120.8z"/>
		<path class="st23" d="M143.9,141.8c0,1.8,1.1,3.2,2.5,3.1c1.4-0.1,2.4-1.7,2.4-3.5c0-1.8-1.1-3.2-2.5-3.1
			C144.9,138.4,143.8,140,143.9,141.8z"/>
		<path class="st23" d="M125.3,141.2c0,1.8,1.1,3.2,2.5,3.1c1.4-0.1,2.4-1.7,2.4-3.5c0-1.8-1.1-3.2-2.5-3.1
			C126.3,137.8,125.2,139.4,125.3,141.2z"/>
		<g>
			<path class="st24" d="M137.3,152.2c4.1,1.7,6.3-0.3,6.5-2.2c0.1-1.3-0.6-2.4-1.8-2.9c-2.5-1-4.3-4.8-4.3-4.9l0,0
				c0,0.9,0.9,4.2,4.1,6.1c0.7,0.4,1.1,0.8,1.1,1.5C142.7,150.8,141.1,152.5,137.3,152.2L137.3,152.2z"/>
		</g>
		<g>
			<path class="st23" d="M152.2,132.3l0.2-1.2c-0.3,0-4.5-1.2-9.5-0.8l0,1.9C147,131.7,152.2,132.3,152.2,132.3z"/>
		</g>
		<g>
			<path class="st23" d="M122,133c3.3-1.3,9.5-1.5,9.6-1.5l-0.4-1.8c-0.2,0-5.8,0.2-9.6,2.2L122,133z"/>
		</g>
		<path class="st25" d="M156.5,97.9c0,0-8.9,8.7-29.6,8.7c0,0,13.5,9.4,32,3.1C158.9,109.8,163.6,98.6,156.5,97.9z"/>
		<path class="st21" d="M115,150.2c1.8,5.3,8.6,18.3,23.1,17.5c7.9-0.4,11.9-5.6,14.5-9.3c-0.6,1.7-1.4,3.3-2.3,4.7
			c-2.3,3.4-5.2,6.3-10.1,7c-21.3,3.3-26.8-17.5-26.8-17.5s-5.1,1.4-7.4-5.1C110,154.2,115,150.2,115,150.2z"/>
		<g>
			<path class="st26" d="M130.1,155c0,0,7.7,1.6,15,0c0,0-1.3,6.6-7.5,6.6C131.7,161.6,130.2,156.3,130.1,155z"/>
			<path class="st2" d="M137.8,158.2c4.8,0,6.2-2,6.8-3.1c-5.6,1.1-10.1,0.4-14,0C130.9,156.3,133.3,158.2,137.8,158.2z"/>
		</g>
	</g>
	<g>
		<polygon class="st27" points="163.2,286.6 161.9,285.1 180.6,213.2 221.3,216.1 223,218.1 		"/>
		<polygon class="st28" points="182.1,216.6 163.2,286.6 203.3,287.6 223,218.1 		"/>
	</g>
	<path class="st10" d="M154.7,256.1l5.6-4.6c0,0,5.1-2.4,8-3c2.9-0.6,3.8-2.5,3.8-2.5l-1.2,5c0,0,15.3-2.2,15.8,0c0,0,0.3,0.7-0.2,2
		c0,0,2.4,0,1.8,2.7c0,0,0.1,0.2-1.4,0.6c0,0,1.4,1.9-1,3.2c0,0,0.7,1.6-1.3,2.6c-2,0.9-12.6,3.4-12.6,3.4s-9.3,0.3-12.9-2.1
		L154.7,256.1z"/>
	<path class="st11" d="M160.4,250.7c-3.9-0.9-5.8-0.9-9.8-2.1c-0.9,6.3-1,6.8-1.8,14.3c5.3,1,10.1,1.1,10.1,1.1
		C162.5,257.6,160.4,250.7,160.4,250.7z"/>
	<path class="st29" d="M152.3,247c-20.3-2.2-37.9-8.5-37.9-8.5c-9.3-37.3-19.2-51.2-19.2-51.2c-22.9,10.7,0.5,66.8,10.1,71.6
		c5.2,2.6,29.1,6,45.4,5.7C152.3,258.4,153.4,250.5,152.3,247z"/>
</g>
<g>
	<g>
		<path class="st30" d="M504.5,463.8l3.5-0.4l-35.3-152.9h-74.1l-34.4,153l3.5,0.4l15.3-58.5h50.8l1,59.3h3.5l0.7-59.3H489
			L504.5,463.8z M383.5,402l22.1-86.2h26.7l1.4,86.2H383.5z M439,402l1-86.2h26l22.5,86.2H439z"/>
		<rect x="363.5" y="129.1" class="st0" width="145.2" height="220.8"/>
		<g>
			<path class="st31" d="M471.4,312.9c3.3-5.8,5.2-12.4,5.2-19.6c0-10.8-4.4-20.6-11.5-27.7l-27.7,27.7L471.4,312.9z"/>
			<path class="st6" d="M433.5,294v-37.9c-20.9,0-37.9,17-37.9,37.9c0,20.9,17,37.9,37.9,37.9c14,0,26.3-7.6,32.8-19L433.5,294z"/>
			<path class="st7" d="M466.3,260.9c-7.7-7.7-18.4-12.5-30.2-12.5v42.8L466.3,260.9z"/>
		</g>
		<rect x="351.2" y="108.5" class="st5" width="168" height="20.6"/>
		<rect x="351.2" y="123.4" class="st1" width="168" height="5.7"/>
		<g>
			<rect x="393.3" y="151.9" class="st6" width="2.2" height="79.8"/>
			<rect x="393.3" y="229.1" class="st6" width="97.4" height="2.6"/>
			<rect x="401.2" y="218.5" class="st7" width="8.8" height="10.5"/>
			<rect x="414.4" y="214.2" class="st7" width="7.5" height="14.9"/>
			<rect x="426.6" y="201" class="st7" width="8.8" height="28.1"/>
			<rect x="438.5" y="182.6" class="st7" width="8.8" height="46.5"/>
			<rect x="450.8" y="172.1" class="st7" width="9.6" height="57"/>
			<rect x="463.5" y="164.6" class="st7" width="8.8" height="64.5"/>
			<rect x="477.1" y="156.7" class="st7" width="7.9" height="72.4"/>
			<rect x="394.6" y="235.2" class="st5" width="96.1" height="3.9"/>
			<rect x="385.4" y="151.9" class="st5" width="3.9" height="77.2"/>
		</g>
		<rect x="416.1" y="139.2" class="st1" width="41.2" height="9.6"/>
	</g>
</g>
<g>
	<g>
		
			<linearGradient id="SVGID_1_" gradientUnits="userSpaceOnUse" x1="-3440.3467" y1="128.8993" x2="-3439.7507" y2="172.379" gradientTransform="matrix(-1 0 0 1 -2913.7314 0)">
			<stop  offset="0" style="stop-color:#503027"/>
			<stop  offset="1" style="stop-color:#3C231E"/>
		</linearGradient>
		<path class="st32" d="M499.6,191.5c0,0-5.2-47.8,6.5-71.1c9.1-18.1,19.9-8.9,19.9-8.9s10.4-7.2,17.4,2.3c7,9.5,18.5,33.1,2.2,60.4
			C529.5,201.6,499.6,191.5,499.6,191.5z"/>
		<path class="st33" d="M549.6,124.7c-1.5-3.6-3.3-6.7-4.9-9.1c-15.7,7.7-28.8,3.3-35.5-0.2c-1,1.4-2.1,3-3.1,5.1
			c-0.6,1.2-1.2,2.6-1.7,3.9C514,125.7,531.7,127.4,549.6,124.7z"/>
	</g>
	<path class="st34" d="M502.4,183.1c0,0-6.4,3.5-17,44.2l11.8,1.3C497.2,228.6,508.4,187.4,502.4,183.1z"/>
	<ellipse class="st35" cx="523.4" cy="474.5" rx="52.3" ry="7.6"/>
	<g>
		<path class="st36" d="M555.5,326.6h-28.7c0.2,12.3,0.8,26.5,2.6,35.3c3.9,18.9,0.8,82.8,0.8,82.8l10.9,0.6
			c16.2-59.6,7.3-89.9,7.3-89.9C551.8,345.1,554.1,335.4,555.5,326.6z"/>
	</g>
	<g>
		<path class="st37" d="M530.3,444.8c0,0-8.1,29.2-5.1,29.7h16.2c0,0,2.4,0.9-0.2-29.1l-5.9-0.7L530.3,444.8z"/>
		<path class="st36" d="M530.3,444.7l-2.7,22.2c1.4,0.3,8.9-1.2,11.7,0.9c0,0,1.7-9.6,1.9-22.5l-5-7.3L530.3,444.7z"/>
	</g>
	<g>
		<path class="st36" d="M524.2,326.6h-27.1c3.4,16.9,6.9,33.3,8.4,38.5c3.5,11.9,6.8,79.6,6.8,79.6h11.3c0.2-11.3,1.6-24.2,2.6-31.5
			c5.7-42-3.2-59.3-3.2-59.3C524.4,345,524.6,335.4,524.2,326.6z"/>
	</g>
	<path class="st38" d="M555.5,326.6h-28.7c0.1,8.5,0.5,18.3,1.3,26.3c6.6-0.2,13.9-0.9,21.8-2.4C552.5,342,554.3,334.2,555.5,326.6z
		"/>
	<path class="st38" d="M524.2,326.6h-27.1c1.8,8.9,3.6,17.5,5.1,24.5c5.5,1,12.5,1.9,20.9,1.9C524.4,344.4,524.6,335.1,524.2,326.6z
		"/>
	<g>
		<path class="st37" d="M523.6,444.7c-3.7,10.6-13.2,22.2-13.2,22.2l-8.3,0.9l-8.3,2c0,0-2.1,2-0.3,5.2h21.1l7.2-18l-0.5,18h2.2
			l4.5-22.2C528.1,452.7,527.6,447.4,523.6,444.7z"/>
		<path class="st36" d="M523.6,444.7l-5.3-4.8l-6,4.8c0,0-6.4,20.5-10.2,23.1l7.6-0.1C509.7,467.7,519.9,455.2,523.6,444.7z"/>
	</g>
	<path class="st37" d="M501.9,253c0,0-21.3,29.6-3.1,93c0,0,13.6,5.4,55,0c0,0,18.7-64-13.5-93.8L501.9,253z"/>
	<g>
		<path class="st39" d="M515.2,227.5l18.6-33.6l7-13.6c-11-3.2-20.6-2.1-27.4-0.3l-2,13.6C511.3,193.6,511.3,215.7,515.2,227.5z"/>
		<g>
			<g>
				<path class="st36" d="M520.3,174.3l0,11.1l13.5,0.1l0.1-14.4C528.2,174.7,522.6,174.6,520.3,174.3z"/>
				<path class="st38" d="M533.8,171.1l0-11.1l-13.5-0.1l-0.1,14.4C522.6,174.6,528.2,174.7,533.8,171.1z"/>
			</g>
			<path class="st37" d="M541,180.3l-8.6,13.2l-17.1,30.4c-3.9-11.8-2.4-30.2-2.4-30.2l0.5-13.7c-6.8,1.8-11.1,3.2-11.1,3.2
				l-1.8,11.9c-7,9-9.1,14.2-9.2,16.8c-0.1,5.9,6.5,11.1,6.5,11.1l4,30.1c23.3,9.1,39.7,0.5,39.7,0.5c2.6-17.6,10.9-43.3,10.9-43.3
				V185C548.9,182.9,544.6,181.4,541,180.3z"/>
			<path class="st40" d="M520.2,174.9c0,0-0.2,6.4,4.2,9c0,0,8.9-1.9,9.5-9.1l4.9,5c0,0-5.6,10.6-12,13.8l-2.6-8.1l-6.9,6.8
				c0,0-2.8-7.9-2.3-13.1L520.2,174.9z"/>
			<path class="st41" d="M507.3,200l-3.1,3.4c0,0,4.1,18.3,10.8,28c0,0,18.8-17.1,23.9-26.1l-4.4-4.3l6.4-0.1l6.3-18.4
				c-2.1-0.9-4.2-1.7-6.3-2.2l-8.5,13.2l-17,30.4c-3.9-11.8-2.4-30.2-2.4-30.2l0.5-13.7c-2,0.5-3.8,0.9-5.3,1.5l-4.8,17.4L507.3,200
				z"/>
		</g>
	</g>
	<polygon class="st34" points="499,266.7 512.9,276.4 518.5,269.4 523.5,276.4 543.9,264.3 523.7,280.9 518.7,273.9 512.3,281.5 	
		"/>
	<g>
		<path class="st36" d="M547.9,140.7l-0.4,0.1l0,0c0,0-2,14-6.7-2.9c-11.3-8.6-14.8-21.6-14.8-21.6c-4.3,9.5-14.7,22.7-20.1,24.8
			c-0.2,3.2,0.2,8.1,0.6,12.4c0.8,8.5,5.2,14.7,13.5,16.7c20.1,4.7,25.7-14.3,25.7-14.3s7.5,0.2,8.4-9.6
			C554.9,138.2,547.9,140.7,547.9,140.7z"/>
		<path class="st38" d="M526.5,123.2c0,0,5.4,10.5,14.3,14.6c-11.3-8.7-14.8-21.6-14.8-21.6c-3.8,8.4-12.5,19.8-18.1,23.7
			C511.8,138.5,518.5,134.3,526.5,123.2z"/>
		<path class="st38" d="M544,153.8c0,0-5.4,14.1-16.7,15.6c-6.9,0.9-12.7-2-16.3-4.4c2.2,2.5,5.2,4.3,9,5.2
			c20.1,4.7,25.7-14.3,25.7-14.3s6,0.1,7.9-6.7C548.7,156.1,544,153.8,544,153.8z"/>
		<g class="st42">
			
				<ellipse transform="matrix(5.532373e-03 -1 1 5.532373e-03 356.0976 666.7697)" class="st43" cx="513.3" cy="154.3" rx="8.1" ry="8.1"/>
			
				<ellipse transform="matrix(5.530125e-03 -1 1 5.530125e-03 356.0988 666.7701)" class="st44" cx="513.3" cy="154.3" rx="7.4" ry="7.4"/>
			
				<ellipse transform="matrix(5.527306e-03 -1 1 5.527306e-03 356.1002 666.7705)" class="st45" cx="513.3" cy="154.3" rx="6.7" ry="6.7"/>
			
				<ellipse transform="matrix(5.523814e-03 -1 1 5.523814e-03 356.102 666.7711)" class="st46" cx="513.3" cy="154.3" rx="6" ry="6"/>
			
				<ellipse transform="matrix(5.519375e-03 -1 1 5.519375e-03 356.1043 666.7717)" class="st47" cx="513.3" cy="154.3" rx="5.3" ry="5.3"/>
			
				<ellipse transform="matrix(5.513546e-03 -1 1 5.513546e-03 356.1073 666.7726)" class="st48" cx="513.3" cy="154.3" rx="4.6" ry="4.6"/>
			
				<ellipse transform="matrix(5.505551e-03 -1 1 5.505551e-03 356.1114 666.7739)" class="st49" cx="513.3" cy="154.3" rx="3.8" ry="3.8"/>
			
				<ellipse transform="matrix(5.493905e-03 -1 1 5.493905e-03 356.1174 666.7757)" class="st50" cx="513.3" cy="154.3" rx="3.1" ry="3.1"/>
			
				<ellipse transform="matrix(5.475373e-03 -1 1 5.475373e-03 356.1269 666.7786)" class="st51" cx="513.3" cy="154.3" rx="2.4" ry="2.4"/>
			
				<ellipse transform="matrix(5.441279e-03 -1 1 5.441279e-03 356.1443 666.784)" class="st52" cx="513.3" cy="154.3" rx="1.7" ry="1.7"/>
			
				<ellipse transform="matrix(5.357835e-03 -1 1 5.357835e-03 356.1871 666.7971)" class="st53" cx="513.3" cy="154.3" rx="1" ry="1"/>
			
				<ellipse transform="matrix(5.980068e-03 -1 1 5.980068e-03 355.8683 666.6992)" class="st54" cx="513.3" cy="154.3" rx="0.3" ry="0.3"/>
		</g>
		<g class="st42">
			
				<ellipse transform="matrix(5.511821e-03 -1 1 5.511821e-03 377.7625 687.8901)" class="st43" cx="534.7" cy="154" rx="9.4" ry="9.4"/>
			
				<ellipse transform="matrix(5.509658e-03 -1 1 5.509658e-03 377.7636 687.8905)" class="st44" cx="534.7" cy="154" rx="8.6" ry="8.6"/>
			
				<ellipse transform="matrix(5.509762e-03 -1 1 5.509762e-03 377.7635 687.8905)" class="st45" cx="534.7" cy="154" rx="7.7" ry="7.7"/>
			
				<ellipse transform="matrix(5.509892e-03 -1 1 5.509892e-03 377.7634 687.8905)" class="st46" cx="534.7" cy="154" rx="6.9" ry="6.9"/>
			
				<ellipse transform="matrix(5.510056e-03 -1 1 5.510056e-03 377.7633 687.8905)" class="st47" cx="534.7" cy="154" rx="6.1" ry="6.1"/>
			
				<ellipse transform="matrix(5.510273e-03 -1 1 5.510273e-03 377.7632 687.8905)" class="st48" cx="534.7" cy="154" rx="5.3" ry="5.3"/>
			
				<ellipse transform="matrix(5.510570e-03 -1 1 5.510570e-03 377.763 687.8904)" class="st49" cx="534.7" cy="154" rx="4.4" ry="4.4"/>
			
				<ellipse transform="matrix(5.511002e-03 -1 1 5.511002e-03 377.7628 687.8904)" class="st50" cx="534.7" cy="154" rx="3.6" ry="3.6"/>
			
				<ellipse transform="matrix(5.511689e-03 -1 1 5.511689e-03 377.7624 687.8903)" class="st51" cx="534.7" cy="154" rx="2.8" ry="2.8"/>
			
				<ellipse transform="matrix(5.512955e-03 -1 1 5.512955e-03 377.7617 687.8901)" class="st52" cx="534.7" cy="154" rx="2" ry="2"/>
			
				<ellipse transform="matrix(5.516051e-03 -1 1 5.516051e-03 377.76 687.8896)" class="st53" cx="534.7" cy="154" rx="1.1" ry="1.1"/>
			
				<ellipse transform="matrix(6.173598e-03 -1 1 6.173598e-03 377.409 687.7864)" class="st54" cx="534.7" cy="154" rx="0.3" ry="0.3"/>
		</g>
		<g>
			<path class="st55" d="M517.5,158.2c0,0,5.2,1.6,13.5,0c0,0-2,6.7-7.7,6.3C518.3,164,517.5,158.2,517.5,158.2z"/>
			<path class="st2" d="M517.7,158.5c0,0,5.4,1.8,12.9,0c0,0-1.3,2.8-7.2,2.6C518.2,160.9,517.7,158.5,517.7,158.5z"/>
		</g>
		<path class="st56" d="M516.9,138.1c0,0-3.9-1.5-8.2,1.6c0,0,0-0.5,0.8-1.4c0.9-0.9,3.5-2.3,6.3-1.6
			C515.8,136.6,517.5,137.6,516.9,138.1z"/>
		<path class="st56" d="M527.5,139.4c0,0,4.5-1.9,9.5,1.5c0,0,0-0.6-1-1.6c-1-1-4.1-2.4-7.3-1.6
			C528.8,137.6,526.8,138.8,527.5,139.4z"/>
		<g>
			<path class="st57" d="M523.7,155.7c-4,1.8-6.3,0-6.5-1.9c-0.2-1.2,0.5-2.4,1.7-2.9c2.4-1.1,4-4.9,4.1-5l0,0
				c0,0.9-0.7,4.2-3.8,6.1c-0.7,0.4-1.1,0.9-1,1.5C518.4,154.5,520,156.1,523.7,155.7L523.7,155.7z"/>
		</g>
		<path class="st56" d="M532.8,142.7c0,0-2.5-0.1-2.8-1c0,0-0.4,1.3,1.1,1.8c-0.5,0.6-0.9,1.4-0.9,2.3c-0.1,1.8,0.9,3.3,2.3,3.4
			c1.3,0.1,2.5-1.3,2.6-3.1C535.2,144.3,534.1,142.8,532.8,142.7z"/>
		<path class="st56" d="M514.5,142.6c0,0-2.5-0.1-2.8-1c0,0-0.4,1.3,1.1,1.8c-0.5,0.6-0.9,1.4-0.9,2.3c-0.1,1.8,0.9,3.3,2.3,3.3
			c1.3,0.1,2.5-1.3,2.6-3.1C516.8,144.2,515.8,142.7,514.5,142.6z"/>
	</g>
	<g>
		<polygon class="st58" points="455.5,213.2 456.5,211.7 495.2,211.3 509.3,260.1 508.1,261.4 493.3,214.3 		"/>
		<polygon class="st59" points="455.5,213.1 494.3,213.1 508.1,261.4 469.3,261.4 		"/>
		<path class="st36" d="M474.2,241.3H474c0,0-9.1-0.2-10-0.2l3.1-0.7c0,0,6.8,0.9,7.2-0.5v-0.2c0-0.7-1-1.3-1.7-1.4c0,0-0.1,0-0.1,0
			s-4.9-1-5.9-0.9c-1,0-4.6,0.9-4.6,0.9c-0.7,0-1,0.7-1,1.5v0.2c0,0.4-0.1,0.7,0.1,1c0,0-0.1,0-0.1,0c0.1,0.2-0.1,0.7-0.1,0.7l0.2,0
			c-0.4,0.2-0.5,0.5-0.5,1v0.2c0,0.6,0.2,1.2,0.7,1.5c0,0-0.1,0-0.1,0c0.5,0.4,0.2,0.7,0.2,0.7l0,0c-0.1,0.1-0.3,0.3-0.3,0.4
			c-0.2,0.6,0,1.2,0.4,1.6c0.2,0.2,0.5,0.3,0.8,0.4c0.6,0.3,0.7,0.7,0.6,1c0,0.1-0.1,0.2-0.1,0.3c0,0.4,0.2,0.8,0.5,1
			c0.4,0.4,1,0.5,1.6,0.6c0.4,0,0.8,0,1.2,0c1.5,0,3,0,4.6,0c0.4,0,1,0,1.4,0c0.6,0,1.6-0.8,1.6-1.4v-0.2c0-0.7-1.3-1-1.8-1h1.1
			c0.7,0,2.1-0.9,2.1-1.7v-0.2c0-0.8-1.5-1.2-2.2-1.2h1.7c0.8,0,2.3-0.5,2.3-1.3v-0.5C476.5,241.7,475.1,241.3,474.2,241.3z"/>
		<polygon class="st60" points="462.5,237.2 458.4,223.1 468.9,213.1 490.8,213.1 		"/>
	</g>
	<g>
		<path class="st36" d="M546.7,252.9c0,0-7.3,2.6-10.6,7.1c0,0-1.4,2.1,0.1,2.7c1.5,0.7,0.3,2.7,1.9,3.4c1.6,0.8,0.9,2.3,3.2,2.7
			c0,0,0.4,1.6,2.1,1.6c1.6,0,5.4,0.4,5.8-0.4c0.4-0.8,2.7-3.8,2.5-4.2c-0.1-0.4-0.5-1-1.8-0.7c0,0,1.1-0.7,2.1-2
			c1-1.2,1.6-3.8,1.6-3.8l0.4-7L546.7,252.9z"/>
		<g>
			<path class="st40" d="M551.9,246.6l-5.3,5.2c0,0-0.2,6.3,7.6,8.7l4.1-3.7L551.9,246.6z"/>
			<path class="st37" d="M552.4,185c0,0,33.1,34.3,32,44.8c0,0,0,7-26,27.9c0,0-7.3,0.1-9.3-9.3l19.1-20.8l-17.8-16.4
				C550.4,211.2,545.6,194.3,552.4,185z"/>
		</g>
	</g>
</g>
</svg>
