<?xml version="1.0" encoding="utf-8"?>
<!-- Generator: Adobe Illustrator 21.0.2, SVG Export Plug-In . SVG Version: 6.00 Build 0)  -->
<svg version="1.1" id="Layer_1" xmlns="http://www.w3.org/2000/svg" xmlns:xlink="http://www.w3.org/1999/xlink" x="0px" y="0px"
	 viewBox="0 0 250 77.7" style="enable-background:new 0 0 250 77.7;" xml:space="preserve">
<style type="text/css">
	.st0{fill-rule:evenodd;clip-rule:evenodd;}
	.st1{fill-rule:evenodd;clip-rule:evenodd;fill:#00A63C;}
	.st2{fill-rule:evenodd;clip-rule:evenodd;fill:url(#SVGID_3_);}
</style>
<g>
	<g>
		<path class="st0" d="M69.1,47.1h-3.7H60h-0.3c-0.1,0-0.2,0-0.3,0c-0.2-0.1-0.4-0.1-0.6-0.3c-0.2-0.1-0.3-0.3-0.4-0.5
			c-0.1-0.2-0.1-0.3-0.1-0.5v-1.6c0-0.4,0.2-0.8,0.5-1c0.3-0.2,0.6-0.3,0.9-0.3h5.6h0.8c0.2,0,0.7-0.1,1-0.4c0.3-0.3,0.4-0.7,0.4-1
			l0-11.3l0-3.2c0-0.1,0-0.2,0.1-0.4c0.1-0.2,0.1-0.3,0.3-0.5c0.2-0.2,0.4-0.3,0.6-0.4c0.1,0,0.3-0.1,0.4-0.1h3.2v0.2v3.9v15.7
			c0,0.4,0,0.7-0.1,0.9c-0.1,0.2-0.1,0.3-0.2,0.4c-0.1,0.1-0.2,0.2-0.3,0.3c-0.1,0.1-0.3,0.1-0.5,0.2c0,0-0.1,0-0.2,0h-1.3
			C69.4,47.1,69.2,47.1,69.1,47.1z"/>
		<path class="st0" d="M150.1,25.6L150.1,25.6h8.5c0.4,0,0.6,0.1,0.9,0.1c0.2,0.1,0.4,0.2,0.7,0.3c0.1,0.1,0.2,0.2,0.4,0.3
			c0.1,0.1,0.1,0.2,0.2,0.3c0.1,0.1,0.1,0.2,0.2,0.3c0,0,0,0.1,0.1,0.1c0.2,0.3,0.3,0.7,0.3,1.2v17.5c0,0.1,0,0.3-0.1,0.5
			c-0.1,0.2-0.2,0.4-0.4,0.5c-0.1,0.1-0.3,0.2-0.5,0.3c-0.2,0.1-0.3,0.1-0.4,0.1h-1.5c-0.1,0-0.3,0-0.5-0.1
			c-0.2-0.1-0.4-0.2-0.5-0.3c-0.1-0.1-0.2-0.2-0.2-0.3c0,0,0-0.1,0-0.1c0,0,0-0.1,0-0.1c0-0.1-0.1-0.3-0.1-0.4v0.4v-9.1v-5.8
			c0-0.1,0-0.3-0.1-0.5c-0.1-0.2-0.2-0.4-0.4-0.5c-0.2-0.1-0.3-0.2-0.5-0.3c-0.1,0-0.3-0.1-0.4-0.1h-4.2c-0.2,0-0.6,0.1-0.9,0.3
			c-0.1,0.1-0.3,0.3-0.3,0.4c0,0.1-0.1,0.2-0.1,0.3c0,0.1,0,0.1,0,0.2c0,0.1,0,0.1,0,0.2v14.5c0,0.3-0.1,0.8-0.5,1
			c-0.1,0.1-0.2,0.2-0.4,0.2c-0.2,0.1-0.4,0.1-0.5,0.1h-1.5c-0.1,0-0.3,0-0.5-0.1c-0.2-0.1-0.3-0.2-0.4-0.3c0,0-0.1-0.1-0.1-0.1
			c0,0-0.1-0.1-0.1-0.1c-0.1-0.1-0.1-0.1-0.1-0.2c-0.1-0.2-0.1-0.4-0.1-0.6V31.3c0,0,0-0.1,0-0.1c0-0.1,0-0.2-0.1-0.4
			c0-0.1-0.1-0.2-0.1-0.3c-0.1-0.1-0.1-0.1-0.2-0.2c-0.3-0.3-0.8-0.4-1-0.4h-4.2c-0.1,0-0.3,0-0.5,0.1c-0.1,0.1-0.3,0.1-0.4,0.3
			c-0.2,0.1-0.3,0.3-0.4,0.5c-0.1,0.2-0.1,0.4-0.1,0.5v5.8v8.7c0,0.3-0.1,0.7-0.5,1c-0.1,0.1-0.3,0.2-0.4,0.3
			c-0.2,0.1-0.4,0.1-0.5,0.1h-1.5c-0.1,0-0.3,0-0.5-0.1c-0.1-0.1-0.3-0.1-0.4-0.2c-0.3-0.3-0.5-0.7-0.5-1V28.3
			c0-0.5,0.1-0.9,0.3-1.2c0.2-0.3,0.4-0.6,0.6-0.8c0.3-0.3,0.6-0.5,1-0.6c0.2-0.1,0.5-0.1,0.9-0.1h8.5h0H150.1z"/>
		<path class="st0" d="M194.3,30H190c-0.1,0-0.3,0-0.4,0.1c-0.2,0.1-0.3,0.2-0.4,0.2c-0.3,0.3-0.5,0.7-0.5,1.1v10.2
			c0,0.2,0.1,0.5,0.3,0.8c0.1,0.1,0.1,0.1,0.2,0.2c0.1,0.1,0.2,0.2,0.3,0.2c0.1,0,0.2,0.1,0.3,0.1c0.1,0,0.3,0,0.3,0h4.3
			c0.2,0,0.7-0.1,1-0.4c0.3-0.3,0.4-0.7,0.4-1V31.3c0-0.3-0.2-0.7-0.4-1C194.9,30.1,194.5,30,194.3,30L194.3,30z M191.7,25.7
			L191.7,25.7h5.2c1.7,0,3,1.7,3,3.8l0,13.5l0,0.4c0,2.1-1.3,3.8-3,3.8h-0.5h-0.7h-1.9h-1.5h-4.3h-1.4h-0.6c-0.1,0-0.3,0-0.5-0.1
			c-0.2-0.1-0.3-0.2-0.5-0.3c-0.1-0.2-0.3-0.4-0.4-0.5c-0.1-0.2-0.1-0.3-0.1-0.5c0-7.2,0-12.4,0-15.9c0-1.1,0-2.2,0-2.8
			c0-0.1,0-0.3,0-0.4c0.1-0.3,0.2-0.5,0.4-0.7c0.1-0.1,0.3-0.2,0.5-0.3c0.2-0.1,0.4-0.1,0.5-0.1h0h0h0h0H191.7z"/>
		<path class="st0" d="M87.1,42.8h-3.3h-1.5c-0.2,0-0.4,0-0.7-0.2c-0.4-0.3-0.6-0.7-0.6-1.1v-1.6c0-0.8,0.7-1.3,1.3-1.3h2.5h3.1v3.2
			C87.8,42.3,87.5,42.8,87.1,42.8L87.1,42.8z M89,25.6L89,25.6h-0.4h-9.7c-0.2,0-0.5,0.1-0.8,0.3c-0.1,0.1-0.2,0.2-0.3,0.4
			c-0.1,0.2-0.2,0.4-0.2,0.6l0,1.6c0,0.3,0.1,0.7,0.4,1c0.1,0.1,0.2,0.2,0.4,0.3c0.2,0.1,0.4,0.1,0.6,0.1h7.5c0.2,0,0.5,0.1,0.7,0.3
			c0.3,0.2,0.5,0.6,0.6,1v1.7c0,0.1,0,0.2,0,0.3c-0.1,0.2-0.1,0.4-0.4,0.6c-0.1,0.1-0.3,0.2-0.5,0.3c-0.2,0.1-0.4,0.1-0.5,0.1H84
			h-4.6c-0.9,0-2.7,0.7-2.7,2.8v7.4c0,0.1,0,0.5,0.2,0.9c0.1,0.3,0.3,0.6,0.5,0.8c0.2,0.3,0.6,0.6,0.9,0.7c0.4,0.2,0.8,0.3,1.1,0.3
			c0.9,0,0.7,0,1.5,0h8.3c1.6,0,2.8-1.2,2.8-2.9v-9.6c0,0,0,0,0,0l0-5.2c0,0,0,0,0-0.1V29C91.9,27.1,90.6,25.6,89,25.6z"/>
		<path class="st0" d="M99.3,25.7h10.4c0.1,0,0.3,0,0.5,0.1c0.2,0.1,0.3,0.2,0.4,0.3c0.1,0.1,0.3,0.3,0.3,0.5
			c0.1,0.2,0.1,0.3,0.1,0.5v1.6c0,0.1,0,0.3-0.1,0.4c0,0.1-0.1,0.3-0.2,0.4c-0.1,0.1-0.1,0.2-0.2,0.2c-0.1,0.1-0.1,0.1-0.2,0.1
			c-0.1,0.1-0.3,0.1-0.4,0.2c-0.1,0-0.2,0-0.3,0h-7.5c-0.2,0-0.7,0.1-0.9,0.4c-0.3,0.3-0.4,0.7-0.4,1v1.5c0,1,0.8,1.4,1.4,1.4h2.5
			h4.5c0.5,0,0.8,0.1,1.2,0.3c0.3,0.1,0.5,0.3,0.7,0.5c0.2,0.2,0.5,0.5,0.6,0.9c0.1,0.2,0.1,0.4,0.2,0.6c0,0.1,0,0.1,0,0.2v7.9
			c-0.1,0.9-0.5,1.5-1,2c-0.3,0.2-0.5,0.4-0.8,0.5c-0.3,0.1-0.6,0.2-0.9,0.2H98c-0.1,0-0.3,0-0.5-0.1c-0.2-0.1-0.3-0.2-0.4-0.3
			c-0.1-0.1-0.2-0.2-0.3-0.4c-0.1-0.2-0.1-0.4-0.1-0.6v-1.6c0-0.2,0.1-0.4,0.2-0.7c0.1-0.2,0.2-0.3,0.3-0.4c0.1-0.1,0.1-0.1,0.2-0.1
			c0.2-0.1,0.5-0.1,0.6-0.1h6.9h1.5c0.1,0,0.3,0,0.5-0.1c0.2-0.1,0.3-0.2,0.5-0.3c0.1-0.1,0.1-0.1,0.2-0.2c0.1-0.1,0.1-0.2,0.2-0.3
			c0.1-0.2,0.1-0.3,0.1-0.5V40c0-0.2,0-0.4-0.1-0.6c-0.1-0.2-0.2-0.3-0.3-0.4c-0.2-0.2-0.4-0.3-0.6-0.3c-0.1,0-0.2,0-0.3,0h-2.5H98
			c-0.3,0-0.6-0.1-0.7-0.2c-0.1-0.1-0.3-0.2-0.4-0.4c-0.1-0.1-0.1-0.1-0.1-0.2c-0.1-0.1-0.1-0.3-0.1-0.4c0-0.3,0-0.7,0-1
			c0-0.1,0-0.2,0-0.3v-7.7c0-1,0.4-1.5,0.9-2c0.2-0.3,0.6-0.4,0.9-0.6c0.1-0.1,0.2-0.1,0.4-0.1C98.9,25.7,99.1,25.7,99.3,25.7z"/>
		<path class="st0" d="M125.1,42.9h-3.3h-1.5c-0.2,0-0.4,0-0.7-0.2c-0.4-0.3-0.6-0.7-0.6-1.1v-1.6c0-0.8,0.7-1.3,1.3-1.3h2.5h3.1
			v3.2C125.8,42.4,125.5,42.9,125.1,42.9L125.1,42.9z M127,25.7L127,25.7h-0.4h-9.7c-0.2,0-0.5,0.1-0.8,0.3
			c-0.1,0.1-0.2,0.2-0.3,0.4c-0.1,0.2-0.2,0.4-0.2,0.6l0,1.6c0,0.3,0.1,0.7,0.4,1c0.1,0.1,0.2,0.2,0.4,0.3c0.2,0.1,0.4,0.1,0.6,0.1
			h7.5c0.2,0,0.5,0.1,0.7,0.3c0.3,0.2,0.5,0.6,0.6,1v1.7c0,0.1,0,0.2,0,0.3c-0.1,0.2-0.2,0.4-0.4,0.7c-0.1,0.1-0.3,0.2-0.5,0.3
			c-0.2,0.1-0.4,0.1-0.5,0.1H122h-4.5c-0.9,0-2.7,0.7-2.7,2.8v7.4c0,0.1,0,1,0.7,1.8c0.2,0.3,0.5,0.5,0.9,0.7
			c0.4,0.2,0.9,0.3,1.2,0.3c0.9,0,0.7,0,1.5,0l8.3,0c1.6,0,2.8-1.2,2.8-2.9v-9.6c0,0,0,0,0,0v-5.2c0,0,0,0,0-0.1v-0.4
			C129.9,27.2,128.6,25.7,127,25.7z"/>
		<path class="st0" d="M170.2,30h3.3h1.5c0.2,0,0.4,0,0.7,0.2c0.4,0.3,0.6,0.7,0.6,1.1V33c0,0.8-0.7,1.3-1.3,1.3h-2.6h-3v-3.2
			C169.5,30.5,169.8,30,170.2,30L170.2,30z M168.3,47.2L168.3,47.2h0.4h9.7c0.2,0,0.5-0.1,0.8-0.3c0.1-0.1,0.2-0.2,0.3-0.4
			c0.1-0.2,0.2-0.4,0.2-0.6l0-1.6c0-0.3-0.1-0.7-0.4-1c-0.1-0.1-0.2-0.2-0.4-0.3c-0.2-0.1-0.4-0.1-0.6-0.1h-7.5
			c-0.2,0-0.5-0.1-0.7-0.3c-0.3-0.2-0.5-0.6-0.5-1V40c0-0.1,0-0.2,0-0.3c0.1-0.2,0.2-0.4,0.4-0.6c0.1-0.1,0.3-0.3,0.5-0.3
			c0.2-0.1,0.4-0.1,0.5-0.1h2.5h4.6c0.9,0,2.7-0.7,2.7-2.8v-7.4c0-0.1,0-0.4-0.1-0.7c-0.1-0.3-0.3-0.7-0.6-1.1c-0.5-0.6-1.4-1-2-0.9
			c-0.9,0-0.7,0-1.4,0h-8.3c-1.6,0-2.8,1.2-2.8,2.9v9.6c0,0,0,0,0,0v5.2c0,0,0,0,0,0.1v0.4v0C165.4,45.7,166.7,47.2,168.3,47.2z"/>
		<path class="st0" d="M218,26.9v7.9l6.3-8.7c0.2-0.2,0.4-0.4,0.7-0.5c0.1,0,0.2,0,0.4,0c0.1,0,0.1,0,0.2,0c0.3,0,0.6,0,0.9,0
			c0.5,0,1.1,0,1.5,0c0.4,0,1,0.3,1.2,0.8c0.1,0.2,0.2,0.4,0.1,0.7c0,0.3-0.1,0.6-0.3,0.8l-1.1,1.4c0,0,0,0,0,0.1l-5.3,6.9l8.3,10.8
			H225c-0.1-0.1-0.2-0.1-0.2-0.2l-5.2-6.8l-1.5,2.4v3.2c0,0.2-0.1,0.7-0.5,1c-0.2,0.1-0.3,0.2-0.4,0.2c-0.2,0.1-0.4,0.1-0.5,0.1
			h-1.8c-0.1,0-0.2,0-0.3,0c0,0-0.1,0-0.1,0c0,0,0,0-0.1,0c-0.2-0.1-0.3-0.2-0.4-0.3c-0.3-0.3-0.4-0.8-0.4-1c0-4,0-8.6,0-12.8
			c0-2.5,0-4.6,0-5.9c0-0.6,0.2-0.9,0.5-1.2c0.1-0.1,0.2-0.2,0.4-0.2c0.1,0,0.3-0.1,0.5-0.1c0.4,0,1.2,0,1.8,0c0.5,0,0.7,0.2,1,0.4
			c0.1,0.1,0.2,0.2,0.3,0.4C218,26.6,218,26.8,218,26.9z"/>
		<path class="st0" d="M206,25.6h1.7c0.2,0,0.4,0,0.5,0.1c0.1,0,0.2,0.1,0.3,0.2c0.1,0,0.1,0.1,0.2,0.2c0.1,0.1,0.2,0.2,0.2,0.3
			c0.1,0.2,0.2,0.4,0.2,0.6l0,18.8c0,0.7-0.8,1.4-1.7,1.4h-1.1c-0.9,0-1.7-0.6-1.7-1.4V27c0-0.6,0.3-1.1,0.9-1.3
			C205.5,25.7,205.8,25.6,206,25.6z"/>
		<path class="st0" d="M242.2,42.9h-3.3h-1.5c-0.2,0-0.4,0-0.7-0.2c-0.4-0.3-0.6-0.7-0.6-1.1v-1.6c0-0.8,0.7-1.3,1.3-1.3h2.6h3v3.2
			C243,42.4,242.6,42.9,242.2,42.9L242.2,42.9z M244.2,25.7L244.2,25.7h-0.4h-9.7c-0.2,0-0.5,0.1-0.8,0.3c-0.1,0.1-0.2,0.2-0.3,0.4
			c-0.1,0.2-0.2,0.4-0.2,0.6l0,1.6c0,0.3,0.1,0.7,0.4,1c0.1,0.1,0.2,0.2,0.4,0.3c0.2,0.1,0.4,0.1,0.6,0.1h7.5c0.2,0,0.5,0.1,0.7,0.3
			c0.3,0.2,0.5,0.6,0.5,1v1.7c0,0.1,0,0.2,0,0.3c-0.1,0.2-0.2,0.4-0.4,0.7c-0.1,0.1-0.3,0.2-0.5,0.3c-0.2,0.1-0.4,0.1-0.5,0.1h-2.5
			h-4.6c-0.9,0-2.7,0.7-2.7,2.8v7.4c0,0,0,0.1,0,0.3c0,0.1,0.1,0.3,0.1,0.5c0.1,0.3,0.4,0.8,0.7,1.1c0.2,0.2,0.5,0.4,0.9,0.6
			c0.3,0.1,0.7,0.2,1,0.2c0.9,0,0.7,0,1.5,0l8.3,0c1.6,0,2.8-1.2,2.8-2.9v-9.6c0,0,0,0,0,0v-5.2c0,0,0,0,0-0.1v-0.4
			C247,27.2,245.7,25.7,244.2,25.7z"/>
	</g>
	<g>
		<path class="st0" d="M61.8,52.4c0,0.5,0,1.3,0,2.3c0,0.2-0.1,0.3-0.2,0.4c-0.1,0.1-0.2,0.2-0.4,0.2c-0.4,0-1,0-1.7,0
			c0,0.5,0,1.3,0,2.3c-0.3,0-0.6,0-1.1,0c0-0.3,0-0.6,0-1c0-0.4,0-0.8,0-1.3c0-0.3,0-0.6,0-1.1c0-0.3,0-0.6,0-1.1c0-0.3,0-0.6,0-1.1
			c0.3,0,0.6,0,1.1,0c0.4,0,1,0,1.7,0c0.2,0,0.3,0.1,0.4,0.2C61.7,52.1,61.8,52.3,61.8,52.4L61.8,52.4z M59.5,54.1L59.5,54.1
			c0.3,0,0.6,0,1.1,0c0,0,0-0.1,0-0.2c0-0.2,0-0.5,0-0.9c-0.3,0-0.6,0-1.1,0C59.5,53.2,59.5,53.6,59.5,54.1z"/>
		<path class="st0" d="M69.5,53c-0.6,0-0.9,0-1.1,0c0,2.3,0,3.8,0,4.6c-0.6,0-1,0-1.1,0c0-2.3,0-3.8,0-4.6c-0.6,0-0.9,0-1.1,0
			c0-0.3,0-0.5,0-0.7c0-0.2,0-0.3,0-0.4c1.7,0,2.9,0,3.4,0C69.5,52.4,69.5,52.7,69.5,53z"/>
		<path class="st0" d="M73.8,56.8c0-0.2,0-0.3,0-0.4c0.6,0,0.9,0,1.1,0c0,0.6,0,0.9,0,1.1c-0.6,0-0.9,0-1.1,0
			C73.8,57.3,73.8,57,73.8,56.8z"/>
		<path class="st0" d="M90.3,51.9c0,1.1,0,2.8,0,5.1c0,0.2-0.1,0.3-0.2,0.4c-0.1,0.1-0.3,0.2-0.4,0.2c-0.5,0-1.3,0-2.3,0
			c-0.2,0-0.3-0.1-0.4-0.2c-0.1-0.1-0.2-0.2-0.2-0.4c0-0.1,0-0.3,0-0.5c0-0.2,0-0.4,0-0.7c0.3,0,0.6,0,1.1,0c0,0.1,0,0.3,0,0.6
			c0.3,0,0.6,0,1.1,0c0-1,0-2.5,0-4.6C89.5,51.9,89.8,51.9,90.3,51.9z"/>
		<path class="st0" d="M98.1,57.6c-0.3,0-0.6,0-1.1,0c0-0.5,0-1.3,0-2.3c-0.3,0-0.6,0-1.1,0c0,0.5,0,1.3,0,2.3c-0.3,0-0.6,0-1.1,0
			c0-0.4,0-1.1,0-1.9c0-0.4,0-0.8,0-1.3c0-0.5,0-1.2,0-1.9c0-0.2,0.1-0.3,0.2-0.4c0.1-0.1,0.2-0.2,0.4-0.2c0.5,0,1.3,0,2.3,0
			c0.2,0,0.3,0.1,0.4,0.2c0.1,0.1,0.2,0.2,0.2,0.4C98.1,53.6,98.1,55.3,98.1,57.6L98.1,57.6z M96.9,54.1L96.9,54.1c0,0,0-0.1,0-0.2
			c0-0.2,0-0.5,0-0.9c-0.3,0-0.6,0-1.1,0c0,0.3,0,0.6,0,1.1C96,54.1,96.4,54.1,96.9,54.1z"/>
		<path class="st0" d="M104.6,53.6c0-0.1,0-0.3,0-0.6c-0.3,0-0.6,0-1.1,0c0,0.3,0,0.6,0,1.1c0.4,0,1,0,1.7,0c0.2,0,0.3,0.1,0.4,0.2
			c0.1,0.1,0.2,0.2,0.2,0.4c0,0.5,0,1.3,0,2.3c0,0.2-0.1,0.3-0.2,0.4c-0.1,0.1-0.2,0.2-0.4,0.2c-0.5,0-1.3,0-2.3,0
			c-0.2,0-0.3-0.1-0.4-0.2c-0.1-0.1-0.2-0.2-0.2-0.4c0-0.3,0-0.6,0-1.1c0.3,0,0.6,0,1.1,0c0,0.1,0,0.3,0,0.6c0.3,0,0.6,0,1.1,0
			c0-0.3,0-0.6,0-1.1c-0.4,0-0.9,0-1.7,0c-0.2,0-0.3-0.1-0.4-0.2c-0.1-0.1-0.2-0.3-0.2-0.4c0-0.3,0-0.6,0-1c0-0.4,0-0.8,0-1.3
			c0-0.2,0.1-0.3,0.2-0.4c0.1-0.1,0.2-0.2,0.4-0.2c0.5,0,1.3,0,2.3,0c0.2,0,0.3,0.1,0.4,0.2c0.1,0.1,0.2,0.2,0.2,0.4
			c0,0.3,0,0.6,0,1.1C105.5,53.6,105.1,53.6,104.6,53.6z"/>
		<path class="st0" d="M113.5,57.6c-0.3,0-0.6,0-1.1,0c0-0.5,0-1.3,0-2.3c-0.3,0-0.6,0-1.1,0c0,0.5,0,1.3,0,2.3c-0.3,0-0.6,0-1.1,0
			c0-0.4,0-1.1,0-1.9c0-0.4,0-0.8,0-1.3c0-0.5,0-1.2,0-1.9c0-0.2,0.1-0.3,0.2-0.4c0.1-0.1,0.2-0.2,0.4-0.2c0.5,0,1.3,0,2.3,0
			c0.2,0,0.3,0.1,0.4,0.2c0.1,0.1,0.2,0.2,0.2,0.4C113.5,53.6,113.5,55.3,113.5,57.6L113.5,57.6z M112.3,54.1L112.3,54.1
			c0,0,0-0.1,0-0.2c0-0.2,0-0.5,0-0.9c-0.3,0-0.6,0-1.1,0c0,0.3,0,0.6,0,1.1C111.5,54.1,111.8,54.1,112.3,54.1z"/>
		<path class="st0" d="M123.5,52.4c0,1.1,0,2.9,0,5.1c-0.3,0-0.6,0-1.1,0c0-1,0-2.5,0-4.6c-0.3,0-0.6,0-1.1,0c0,1,0,2.5,0,4.6
			c-0.3,0-0.6,0-1.1,0c0-1,0-2.5,0-4.6c-0.3,0-0.6,0-1.1,0c0,1,0,2.5,0,4.6c-0.3,0-0.6,0-1.1,0c0-0.4,0-1.1,0-1.9c0-0.4,0-0.8,0-1.3
			c0-0.5,0-1.2,0-1.9c0-0.2,0.1-0.3,0.2-0.4c0.1-0.1,0.2-0.2,0.4-0.2c0.4,0,0.9,0,1.7,0c0.2,0,0.3,0.1,0.4,0.2
			c0.1,0.1,0.2,0.2,0.2,0.4c0-0.2,0.1-0.3,0.2-0.4c0.1-0.1,0.2-0.2,0.4-0.2c0.4,0,1,0,1.7,0c0.1,0,0.3,0.1,0.4,0.2
			C123.4,52.1,123.5,52.3,123.5,52.4z"/>
		<path class="st0" d="M128.9,53c0,0.5,0,0.9,0,1.1c0.8,0,1.3,0,1.7,0c0,0.5,0,0.9,0,1.1c-0.8,0-1.3,0-1.7,0c0,0.5,0,0.9,0,1.1
			c1,0,1.8,0,2.3,0c0,0.5,0,0.9,0,1.1c-1,0-1.8,0-2.3,0c-0.5,0-0.9,0-1.1,0c0-0.3,0-0.5,0-0.7c0-0.2,0-0.3,0-0.5c0-0.6,0-1,0-1.1
			c0-0.6,0-1,0-1.1c0-0.6,0-1,0-1.1c0-0.6,0-0.9,0-1.1c0.6,0,1,0,1.1,0c1.1,0,1.9,0,2.3,0c0,0.6,0,0.9,0,1.1
			C130.2,53,129.4,53,128.9,53z"/>
		<path class="st0" d="M138.9,52.4c0,1,0,2.5,0,4.6c0,0.2-0.1,0.3-0.2,0.4c-0.1,0.1-0.2,0.2-0.4,0.2c-0.4,0-1,0-1.7,0
			c-0.1,0-0.3,0-0.6,0c-0.1,0-0.3,0-0.6,0c0-0.6,0-1.4,0-2.4c0-0.9,0-2.1,0-3.3c0.2,0,0.6,0,1,0c0,0,0.1,0,0.1,0c0.4,0,1,0,1.7,0
			c0.2,0,0.3,0.1,0.4,0.2C138.8,52.1,138.9,52.3,138.9,52.4L138.9,52.4z M136.6,56.4L136.6,56.4c0.3,0,0.6,0,1.1,0c0,0,0-0.1,0-0.2
			c0-0.7,0-1.8,0-3.2c-0.3,0-0.6,0-1.1,0c0,0.4,0,0.9,0,1.7C136.6,55.1,136.6,55.7,136.6,56.4z"/>
		<path class="st0" d="M143.2,51.9c0.2,0,0.6,0,1.1,0c0,0.7,0,2.1,0,4.3c0,0.2,0,0.7,0,1.4c-0.2,0-0.6,0-1.1,0c0-0.5,0-1.2,0-2.1
			C143.2,54.5,143.2,53.3,143.2,51.9z"/>
		<path class="st0" d="M152,54.7c0,0.6,0,1.6,0,2.9c-0.3,0-0.6,0-1.1,0c0-0.5,0-1.3,0-2.3c-0.3,0-0.6,0-1.1,0c0,0.5,0,1.3,0,2.3
			c-0.3,0-0.6,0-1.1,0c0-0.6,0-1.4,0-2.4c0-0.9,0-2.1,0-3.3c0.3,0,0.6,0,1.1,0c0,0.5,0,1.3,0,2.3c0.1,0,0.1,0,0.2,0
			c0.2-0.5,0.5-1.3,0.9-2.3c0.3,0,0.7,0,1.3,0c-0.2,0.5-0.6,1.3-1.1,2.3c0.1,0,0.2,0,0.3,0c0.2,0,0.3,0.1,0.4,0.2
			C152,54.4,152,54.5,152,54.7z"/>
		<path class="st0" d="M159.9,57.6c-0.3,0-0.6,0-1.1,0c0-0.5,0-1.3,0-2.3c-0.3,0-0.6,0-1.1,0c0,0.5,0,1.3,0,2.3c-0.3,0-0.6,0-1.1,0
			c0-0.4,0-1.1,0-1.9c0-0.4,0-0.8,0-1.3c0-0.5,0-1.2,0-1.9c0-0.2,0.1-0.3,0.2-0.4c0.1-0.1,0.2-0.2,0.4-0.2c0.5,0,1.3,0,2.3,0
			c0.2,0,0.3,0.1,0.4,0.2c0.1,0.1,0.2,0.2,0.2,0.4C159.9,53.6,159.9,55.3,159.9,57.6L159.9,57.6z M158.8,54.1L158.8,54.1
			c0,0,0-0.1,0-0.2c0-0.2,0-0.5,0-0.9c-0.3,0-0.6,0-1.1,0c0,0.3,0,0.6,0,1.1C157.9,54.1,158.3,54.1,158.8,54.1z"/>
		<path class="st0" d="M174.2,53.6c0-0.1,0-0.3,0-0.6c-0.3,0-0.6,0-1.1,0c0,0.3,0,0.6,0,1.1c0.4,0,1,0,1.7,0c0.2,0,0.3,0.1,0.4,0.2
			c0.1,0.1,0.2,0.2,0.2,0.4c0,0.5,0,1.3,0,2.3c0,0.2-0.1,0.3-0.2,0.4c-0.1,0.1-0.2,0.2-0.4,0.2c-0.5,0-1.3,0-2.3,0
			c-0.2,0-0.3-0.1-0.4-0.2c-0.1-0.1-0.2-0.2-0.2-0.4c0-0.3,0-0.6,0-1.1c0.3,0,0.6,0,1.1,0c0,0.1,0,0.3,0,0.6c0.3,0,0.6,0,1.1,0
			c0-0.3,0-0.6,0-1.1c-0.4,0-1,0-1.7,0c-0.2,0-0.3-0.1-0.4-0.2c-0.1-0.1-0.2-0.3-0.2-0.4c0-0.3,0-0.6,0-1c0-0.4,0-0.8,0-1.3
			c0-0.2,0.1-0.3,0.2-0.4c0.1-0.1,0.2-0.2,0.4-0.2c0.5,0,1.3,0,2.3,0c0.2,0,0.3,0.1,0.4,0.2c0.1,0.1,0.2,0.2,0.2,0.4
			c0,0.3,0,0.6,0,1.1C175.1,53.6,174.7,53.6,174.2,53.6z"/>
		<path class="st0" d="M183,57.6c-0.3,0-0.6,0-1.1,0c0-0.5,0-1.3,0-2.3c-0.3,0-0.6,0-1.2,0c0,0.5,0,1.3,0,2.3c-0.3,0-0.6,0-1.1,0
			c0-0.4,0-1.1,0-1.9c0-0.4,0-0.8,0-1.3c0-0.5,0-1.2,0-1.9c0-0.2,0.1-0.3,0.2-0.4c0.1-0.1,0.2-0.2,0.4-0.2c0.5,0,1.3,0,2.3,0
			c0.2,0,0.3,0.1,0.4,0.2c0.1,0.1,0.2,0.2,0.2,0.4C183,53.6,183,55.3,183,57.6L183,57.6z M181.9,54.1L181.9,54.1c0,0,0-0.1,0-0.2
			c0-0.2,0-0.5,0-0.9c-0.3,0-0.6,0-1.2,0c0,0.3,0,0.6,0,1.1C181,54.1,181.4,54.1,181.9,54.1z"/>
		<path class="st0" d="M190.2,54.7c0.1,0,0.3,0.1,0.4,0.2c0.1,0.1,0.2,0.2,0.2,0.4c0,0.5,0,1.3,0,2.3c-0.2,0-0.6,0-1.1,0
			c0-0.5,0-1.3,0-2.3c-0.3,0-0.6,0-1.1,0c0,0.5,0,1.3,0,2.3c-0.3,0-0.6,0-1.1,0c0-0.5,0-1.3,0-2.3c0-0.3,0-0.6,0-1.1
			c0-0.3,0-0.6,0-1c0-0.4,0-0.8,0-1.3c0.3,0,0.6,0,1.1,0c0.4,0,1,0,1.7,0c0.1,0,0.3,0.1,0.4,0.2c0.1,0.1,0.2,0.2,0.2,0.4
			c0,0.4,0,1,0,1.7c0,0.2-0.1,0.3-0.2,0.4C190.5,54.6,190.3,54.7,190.2,54.7L190.2,54.7z M189.6,54.1L189.6,54.1c0,0,0-0.1,0-0.2
			c0-0.2,0-0.5,0-0.9c-0.3,0-0.6,0-1.1,0c0,0.3,0,0.6,0,1.1C188.7,54.1,189.1,54.1,189.6,54.1z"/>
		<path class="st0" d="M198.5,57.6c-0.3,0-0.6,0-1.1,0c0-0.5,0-1.3,0-2.3c-0.3,0-0.6,0-1.1,0c0,0.5,0,1.3,0,2.3c-0.3,0-0.6,0-1.1,0
			c0-0.4,0-1.1,0-1.9c0-0.4,0-0.8,0-1.3c0-0.5,0-1.2,0-1.9c0-0.2,0.1-0.3,0.2-0.4c0.1-0.1,0.2-0.2,0.4-0.2c0.5,0,1.3,0,2.3,0
			c0.2,0,0.3,0.1,0.4,0.2c0.1,0.1,0.2,0.2,0.2,0.4C198.5,53.6,198.5,55.3,198.5,57.6L198.5,57.6z M197.3,54.1L197.3,54.1
			c0,0,0-0.1,0-0.2c0-0.2,0-0.5,0-0.9c-0.3,0-0.6,0-1.1,0c0,0.3,0,0.6,0,1.1C196.4,54.1,196.8,54.1,197.3,54.1z"/>
		<path class="st0" d="M206.2,52.4c0,1.1,0,2.9,0,5.1c-0.3,0-0.6,0-1.1,0c0-1,0-2.5,0-4.6c-0.3,0-0.6,0-1.1,0c0,1,0,2.5,0,4.6
			c-0.3,0-0.6,0-1.1,0c0-0.6,0-1.4,0-2.4c0-0.9,0-2.1,0-3.3c0.3,0,0.6,0,1.1,0c0.4,0,1,0,1.7,0c0.2,0,0.3,0.1,0.4,0.2
			C206.1,52.1,206.2,52.3,206.2,52.4z"/>
		<path class="st0" d="M213.9,57.6c-0.3,0-0.6,0-1.1,0c0-0.5,0-1.3,0-2.3c-0.3,0-0.6,0-1.1,0c0,0.5,0,1.3,0,2.3c-0.3,0-0.6,0-1.1,0
			c0-0.4,0-1.1,0-1.9c0-0.4,0-0.8,0-1.3c0-0.5,0-1.2,0-1.9c0-0.2,0.1-0.3,0.2-0.4c0.1-0.1,0.2-0.2,0.4-0.2c0.5,0,1.3,0,2.3,0
			c0.2,0,0.3,0.1,0.4,0.2c0.1,0.1,0.2,0.2,0.2,0.4C213.9,53.6,213.9,55.3,213.9,57.6L213.9,57.6z M212.7,54.1L212.7,54.1
			c0,0,0-0.1,0-0.2c0-0.2,0-0.5,0-0.9c-0.3,0-0.6,0-1.1,0c0,0.3,0,0.6,0,1.1C211.9,54.1,212.2,54.1,212.7,54.1z"/>
		<path class="st0" d="M221.6,53c-0.6,0-0.9,0-1.1,0c0,2.3,0,3.8,0,4.6c-0.6,0-1,0-1.2,0c0-2.3,0-3.8,0-4.6c-0.6,0-0.9,0-1.1,0
			c0-0.3,0-0.5,0-0.7c0-0.2,0-0.3,0-0.4c1.7,0,2.9,0,3.4,0C221.6,52.4,221.6,52.7,221.6,53z"/>
		<path class="st0" d="M229.3,57.6c-0.2,0-0.6,0-1.1,0c0-0.5,0-1.3,0-2.3c-0.3,0-0.6,0-1.1,0c0,0.5,0,1.3,0,2.3c-0.3,0-0.6,0-1.1,0
			c0-0.4,0-1.1,0-1.9c0-0.4,0-0.8,0-1.3c0-0.5,0-1.2,0-1.9c0-0.2,0.1-0.3,0.2-0.4c0.1-0.1,0.2-0.2,0.4-0.2c0.5,0,1.3,0,2.3,0
			c0.2,0,0.3,0.1,0.4,0.2c0.1,0.1,0.2,0.2,0.2,0.4C229.3,53.6,229.3,55.3,229.3,57.6L229.3,57.6z M228.2,54.1L228.2,54.1
			c0,0,0-0.1,0-0.2c0-0.2,0-0.5,0-0.9c-0.3,0-0.6,0-1.1,0c0,0.3,0,0.6,0,1.1C227.3,54.1,227.7,54.1,228.2,54.1z"/>
		<path class="st0" d="M239.3,52.4c0,1.1,0,2.9,0,5.1c-0.2,0-0.6,0-1.1,0c0-1,0-2.5,0-4.6c-0.3,0-0.6,0-1.1,0c0,1,0,2.5,0,4.6
			c-0.3,0-0.6,0-1.1,0c0-1,0-2.5,0-4.6c-0.3,0-0.6,0-1.1,0c0,1,0,2.5,0,4.6c-0.3,0-0.6,0-1.1,0c0-0.4,0-1.1,0-1.9c0-0.4,0-0.8,0-1.3
			c0-0.5,0-1.2,0-1.9c0-0.2,0.1-0.3,0.2-0.4c0.1-0.1,0.2-0.2,0.4-0.2c0.4,0,0.9,0,1.7,0c0.2,0,0.3,0.1,0.4,0.2
			c0.1,0.1,0.2,0.2,0.2,0.4c0-0.2,0-0.3,0.2-0.4c0.1-0.1,0.2-0.2,0.4-0.2c0.4,0,1,0,1.7,0c0.2,0,0.3,0.1,0.4,0.2
			C239.2,52.1,239.3,52.3,239.3,52.4z"/>
		<path class="st0" d="M247,57.6c-0.3,0-0.6,0-1.1,0c0-0.5,0-1.3,0-2.3c-0.3,0-0.6,0-1.1,0c0,0.5,0,1.3,0,2.3c-0.3,0-0.6,0-1.1,0
			c0-0.4,0-1.1,0-1.9c0-0.4,0-0.8,0-1.3c0-0.5,0-1.2,0-1.9c0-0.2,0.1-0.3,0.2-0.4c0.1-0.1,0.2-0.2,0.4-0.2c0.5,0,1.3,0,2.3,0
			c0.2,0,0.3,0.1,0.4,0.2c0.1,0.1,0.2,0.2,0.2,0.4C247,53.6,247,55.3,247,57.6L247,57.6z M245.9,54.1L245.9,54.1c0,0,0-0.1,0-0.2
			c0-0.2,0-0.5,0-0.9c-0.3,0-0.6,0-1.1,0c0,0.3,0,0.6,0,1.1C245,54.1,245.4,54.1,245.9,54.1z"/>
	</g>
	<g>
		<g>
			<defs>
				<path id="SVGID_1_" d="M31.6,13.6l6.7,1.5v8.5l-6.7-1.3V13.6L31.6,13.6z M20.8,34.2L3,32.7l-0.3,0v27l18.1-3.3l0,18.6l14.8-3.8
					V53.8l11.3-2l0-15.3l-11.3-1v-9.6l-6.2-1v-9.6l-8.5-2V34.2L20.8,34.2z M39.3,2.2l8.5,2.9v10.7l-8.5-2V2.2z"/>
			</defs>
			<clipPath id="SVGID_2_">
				<use xlink:href="#SVGID_1_"  style="overflow:visible;"/>
			</clipPath>
			<g style="clip-path:url(#SVGID_2_);">
				
					<image style="overflow:visible;" width="411" height="662" xlink:href="536C894D.jpg"  transform="matrix(0.1097 0 0 0.1099 2.6897 2.2143)">
				</image>
			</g>
		</g>
	</g>
	<g>
		<polygon class="st1" points="31.7,13.6 38.3,15.1 38.3,23.6 31.7,22.3 		"/>
		
			<radialGradient id="SVGID_3_" cx="32.7601" cy="14.0544" r="48.3678" gradientTransform="matrix(6.123234e-17 -1 0.7181 4.397094e-17 22.6676 46.8145)" gradientUnits="userSpaceOnUse">
			<stop  offset="0" style="stop-color:#00A63C"/>
			<stop  offset="0.141" style="stop-color:#00A449"/>
			<stop  offset="0.4024" style="stop-color:#00A06C"/>
			<stop  offset="0.7527" style="stop-color:#0099A3"/>
			<stop  offset="1" style="stop-color:#0093CE"/>
		</radialGradient>
		<polygon class="st2" points="2.7,32.7 3,32.7 20.9,34.3 20.9,13.4 29.3,15.4 29.3,25 35.6,26 35.6,35.6 46.9,36.6 46.9,51.9 
			35.6,53.8 35.6,71.1 20.9,74.9 20.9,56.3 2.7,59.6 		"/>
		<polygon class="st1" points="39.4,2.3 47.7,5.1 47.7,15.7 39.4,13.8 		"/>
	</g>
	<g>
		<defs>
			<polygon id="SVGID_4_" points="31.7,13.6 33,15.4 33,21.2 37.2,22.1 38.3,23.6 31.7,22.3 			"/>
		</defs>
		<clipPath id="SVGID_5_">
			<use xlink:href="#SVGID_4_"  style="overflow:visible;"/>
		</clipPath>
		<g transform="matrix(1 0 0 1 1.907349e-06 0)" style="clip-path:url(#SVGID_5_);">
			
				<image style="overflow:visible;" width="61" height="91" xlink:href="536C894F.jpg"  transform="matrix(0.1081 0 0 0.1091 31.683 13.6438)">
			</image>
		</g>
	</g>
	<g>
		<defs>
			<polygon id="SVGID_6_" points="20.9,13.4 24.2,16.8 24.3,37.8 5.7,36.3 2.7,32.7 20.9,34.3 			"/>
		</defs>
		<clipPath id="SVGID_7_">
			<use xlink:href="#SVGID_6_"  style="overflow:visible;"/>
		</clipPath>
		<g transform="matrix(1 0 0 1 0 0)" style="clip-path:url(#SVGID_7_);">
			
				<image style="overflow:visible;" width="198" height="222" xlink:href="536C894A.jpg"  transform="matrix(0.109 0 0 0.1096 2.7392 13.4395)">
			</image>
		</g>
	</g>
	<g>
		<defs>
			<polygon id="SVGID_8_" points="2.7,59.6 5.2,55.5 23.8,52.4 23.9,71.2 20.9,74.9 20.9,56.3 			"/>
		</defs>
		<clipPath id="SVGID_9_">
			<use xlink:href="#SVGID_8_"  style="overflow:visible;"/>
		</clipPath>
		<g style="clip-path:url(#SVGID_9_);">
			
				<image style="overflow:visible;" width="194" height="205" xlink:href="536C894B.jpg"  transform="matrix(0.109 0 0 0.1097 2.7392 52.4226)">
			</image>
		</g>
	</g>
	<g>
		<defs>
			<polygon id="SVGID_10_" points="39.4,2.3 40.8,4.3 40.7,12.6 46.3,14 47.7,15.7 39.4,13.8 			"/>
		</defs>
		<clipPath id="SVGID_11_">
			<use xlink:href="#SVGID_10_"  style="overflow:visible;"/>
		</clipPath>
		<g style="clip-path:url(#SVGID_11_);">
			
				<image style="overflow:visible;" width="78" height="122" xlink:href="536C8955.jpg"  transform="matrix(0.1072 0 0 0.1099 39.3656 2.2832)">
			</image>
		</g>
	</g>
</g>
</svg>
